<mxfile host="65bd71144e">
    <diagram id="MXhaWQUYXAl9yfZ-l5TS" name="페이지-1">
        <mxGraphModel dx="1592" dy="900" grid="0" gridSize="10" guides="1" tooltips="1" connect="1" arrows="1" fold="1" page="0" pageScale="1" pageWidth="827" pageHeight="1169" background="#FFFFFF" math="0" shadow="0">
            <root>
                <mxCell id="0"/>
                <mxCell id="1" parent="0"/>
                <mxCell id="4" value="" style="edgeStyle=none;html=1;fontColor=#000000;strokeColor=#000000;rounded=0;" parent="1" source="2" target="3" edge="1">
                    <mxGeometry relative="1" as="geometry"/>
                </mxCell>
                <mxCell id="37" style="edgeStyle=none;rounded=0;html=1;entryX=0.5;entryY=0;entryDx=0;entryDy=0;fontColor=#000000;strokeColor=#000000;" parent="1" source="2" target="5" edge="1">
                    <mxGeometry relative="1" as="geometry"/>
                </mxCell>
                <mxCell id="2" value="Listener" style="whiteSpace=wrap;html=1;fillColor=#f9f7ed;strokeColor=#36393d;fontColor=#000000;rounded=0;" parent="1" vertex="1">
                    <mxGeometry x="50" y="140" width="120" height="60" as="geometry"/>
                </mxCell>
                <mxCell id="3" value="RFID" style="whiteSpace=wrap;html=1;fillColor=#f9f7ed;strokeColor=#36393d;fontColor=#000000;rounded=0;" parent="1" vertex="1">
                    <mxGeometry x="50" y="270" width="120" height="60" as="geometry"/>
                </mxCell>
                <mxCell id="5" value="Monitor" style="whiteSpace=wrap;html=1;fillColor=#f9f7ed;strokeColor=#36393d;fontColor=#000000;rounded=0;" parent="1" vertex="1">
                    <mxGeometry x="220" y="270" width="120" height="60" as="geometry"/>
                </mxCell>
                <mxCell id="7" value="&lt;font color=&quot;#000000&quot;&gt;#1&lt;span style=&quot;white-space: pre&quot;&gt;&#9;&lt;/span&gt;골프 회원 관리&lt;br&gt;&lt;br&gt;&lt;b&gt;1. RFID 인식 확인&lt;/b&gt;&lt;br&gt;&lt;/font&gt;" style="text;html=1;resizable=0;autosize=1;align=left;verticalAlign=middle;points=[];fillColor=none;strokeColor=none;rounded=0;" parent="1" vertex="1">
                    <mxGeometry x="10" y="30" width="120" height="50" as="geometry"/>
                </mxCell>
                <mxCell id="44" value="" style="edgeStyle=none;html=1;rounded=0;strokeColor=#000000;entryX=0;entryY=0.187;entryDx=0;entryDy=0;entryPerimeter=0;" parent="1" source="22" target="41" edge="1">
                    <mxGeometry relative="1" as="geometry"/>
                </mxCell>
                <mxCell id="207" style="edgeStyle=none;rounded=0;html=1;entryX=0.5;entryY=0;entryDx=0;entryDy=0;strokeColor=#000000;exitX=0.995;exitY=-0.018;exitDx=0;exitDy=0;exitPerimeter=0;" edge="1" parent="1" source="23" target="204">
                    <mxGeometry relative="1" as="geometry">
                        <Array as="points"/>
                    </mxGeometry>
                </mxCell>
                <mxCell id="215" style="edgeStyle=none;rounded=0;html=1;entryX=0.5;entryY=0;entryDx=0;entryDy=0;strokeColor=#000000;" edge="1" parent="1" source="22" target="212">
                    <mxGeometry relative="1" as="geometry">
                        <Array as="points">
                            <mxPoint x="270" y="680"/>
                            <mxPoint x="150" y="680"/>
                        </Array>
                    </mxGeometry>
                </mxCell>
                <mxCell id="216" style="edgeStyle=none;rounded=0;html=1;entryX=0.5;entryY=0;entryDx=0;entryDy=0;strokeColor=#000000;" edge="1" parent="1" source="22" target="209">
                    <mxGeometry relative="1" as="geometry">
                        <Array as="points">
                            <mxPoint x="270" y="680"/>
                            <mxPoint x="377" y="680"/>
                        </Array>
                    </mxGeometry>
                </mxCell>
                <mxCell id="22" value="Listener" style="swimlane;fontStyle=1;childLayout=stackLayout;horizontal=1;startSize=20;horizontalStack=0;resizeParent=1;resizeParentMax=0;resizeLast=0;collapsible=1;marginBottom=0;labelBackgroundColor=none;fillColor=#FFE6E6;strokeColor=#36393d;fontColor=#000000;rounded=0;swimlaneFillColor=#FFFFFF;" parent="1" vertex="1">
                    <mxGeometry x="200" y="460" width="140" height="80" as="geometry"/>
                </mxCell>
                <mxCell id="137" value="checkEvent()" style="text;strokeColor=none;fillColor=none;align=left;verticalAlign=middle;spacingLeft=4;spacingRight=4;overflow=hidden;points=[[0,0.5],[1,0.5]];portConstraint=eastwest;rotatable=0;labelBackgroundColor=none;fontColor=#000000;fontStyle=1;rounded=0;" parent="22" vertex="1">
                    <mxGeometry y="20" width="140" height="30" as="geometry"/>
                </mxCell>
                <mxCell id="23" value="checkRfid()" style="text;strokeColor=none;fillColor=none;align=left;verticalAlign=middle;spacingLeft=4;spacingRight=4;overflow=hidden;points=[[0,0.5],[1,0.5]];portConstraint=eastwest;rotatable=0;labelBackgroundColor=none;fontColor=#000000;fontStyle=1;rounded=0;" parent="22" vertex="1">
                    <mxGeometry y="50" width="140" height="30" as="geometry"/>
                </mxCell>
                <mxCell id="38" value="&lt;b&gt;&lt;font style=&quot;font-size: 14px&quot;&gt;UML Diagram&lt;/font&gt;&lt;/b&gt;" style="text;html=1;resizable=0;autosize=1;align=center;verticalAlign=middle;points=[];fillColor=none;strokeColor=none;rounded=0;labelBackgroundColor=none;fontColor=#000000;" parent="1" vertex="1">
                    <mxGeometry x="40" y="100" width="110" height="20" as="geometry"/>
                </mxCell>
                <mxCell id="39" value="&lt;b&gt;&lt;font style=&quot;font-size: 14px&quot;&gt;CLASS Diagram&lt;/font&gt;&lt;/b&gt;" style="text;html=1;resizable=0;autosize=1;align=center;verticalAlign=middle;points=[];fillColor=none;strokeColor=none;rounded=0;labelBackgroundColor=none;fontColor=#000000;" parent="1" vertex="1">
                    <mxGeometry x="40" y="410" width="120" height="20" as="geometry"/>
                </mxCell>
                <mxCell id="67" style="edgeStyle=none;html=1;entryX=0;entryY=0.5;entryDx=0;entryDy=0;entryPerimeter=0;fontColor=#000000;strokeColor=#000000;rounded=0;exitX=1.002;exitY=0.184;exitDx=0;exitDy=0;exitPerimeter=0;" parent="1" source="41" target="63" edge="1">
                    <mxGeometry relative="1" as="geometry">
                        <mxPoint x="860" y="497.5" as="sourcePoint"/>
                    </mxGeometry>
                </mxCell>
                <mxCell id="168" value="" style="edgeStyle=none;html=1;entryX=0.5;entryY=0;entryDx=0;entryDy=0;strokeColor=#000000;rounded=0;" edge="1" parent="1" source="40" target="74">
                    <mxGeometry relative="1" as="geometry"/>
                </mxCell>
                <mxCell id="208" style="edgeStyle=none;rounded=0;html=1;entryX=0.5;entryY=0;entryDx=0;entryDy=0;strokeColor=#000000;exitX=0;exitY=0.5;exitDx=0;exitDy=0;" edge="1" parent="1" source="41" target="204">
                    <mxGeometry relative="1" as="geometry">
                        <Array as="points"/>
                    </mxGeometry>
                </mxCell>
                <mxCell id="40" value="Contoller" style="swimlane;fontStyle=1;childLayout=stackLayout;horizontal=1;startSize=20;horizontalStack=0;resizeParent=1;resizeParentMax=0;resizeLast=0;collapsible=1;marginBottom=0;labelBackgroundColor=none;fillColor=#FFE6E6;strokeColor=#36393d;fontColor=#000000;rounded=0;swimlaneFillColor=#FFFFFF;" parent="1" vertex="1">
                    <mxGeometry x="746.5" y="472.5" width="140" height="50" as="geometry"/>
                </mxCell>
                <mxCell id="41" value="updateEvent()" style="text;strokeColor=none;fillColor=none;align=left;verticalAlign=middle;spacingLeft=4;spacingRight=4;overflow=hidden;points=[[0,0.5],[1,0.5]];portConstraint=eastwest;rotatable=0;labelBackgroundColor=none;fontColor=#000000;fontStyle=1;rounded=0;" parent="40" vertex="1">
                    <mxGeometry y="20" width="140" height="30" as="geometry"/>
                </mxCell>
                <mxCell id="199" style="edgeStyle=none;rounded=0;html=1;entryX=0.5;entryY=0;entryDx=0;entryDy=0;strokeColor=#000000;" edge="1" parent="1" source="63" target="189">
                    <mxGeometry relative="1" as="geometry"/>
                </mxCell>
                <mxCell id="63" value="&lt;span&gt;DataBase&lt;br&gt;memberList.bin&lt;br&gt;&lt;/span&gt;" style="shape=cylinder3;whiteSpace=wrap;html=1;boundedLbl=1;backgroundOutline=1;size=15;fillColor=#FFE6F1;fontStyle=1;strokeColor=#000000;fontColor=#000000;rounded=0;" parent="1" vertex="1">
                    <mxGeometry x="1212.5" y="460" width="115" height="75" as="geometry"/>
                </mxCell>
                <mxCell id="171" style="edgeStyle=none;rounded=0;html=1;entryX=0.5;entryY=0;entryDx=0;entryDy=0;strokeColor=#000000;" edge="1" parent="1" source="74" target="169">
                    <mxGeometry relative="1" as="geometry">
                        <Array as="points">
                            <mxPoint x="816" y="848"/>
                            <mxPoint x="924" y="848"/>
                        </Array>
                    </mxGeometry>
                </mxCell>
                <mxCell id="182" style="edgeStyle=none;rounded=0;html=1;entryX=0.5;entryY=0;entryDx=0;entryDy=0;strokeColor=#000000;" edge="1" parent="1" source="74" target="175">
                    <mxGeometry relative="1" as="geometry">
                        <Array as="points">
                            <mxPoint x="816" y="848"/>
                            <mxPoint x="730" y="848"/>
                        </Array>
                    </mxGeometry>
                </mxCell>
                <mxCell id="188" style="edgeStyle=none;rounded=0;html=1;entryX=0;entryY=0.5;entryDx=0;entryDy=0;strokeColor=#000000;" edge="1" parent="1" target="185">
                    <mxGeometry relative="1" as="geometry">
                        <mxPoint x="920" y="673" as="sourcePoint"/>
                    </mxGeometry>
                </mxCell>
                <mxCell id="201" style="edgeStyle=none;rounded=0;html=1;strokeColor=#000000;entryX=0;entryY=0.5;entryDx=0;entryDy=0;" edge="1" parent="1" target="195">
                    <mxGeometry relative="1" as="geometry">
                        <mxPoint x="920" y="763" as="sourcePoint"/>
                    </mxGeometry>
                </mxCell>
                <mxCell id="74" value="MemberManage&#10;Service" style="swimlane;fontStyle=1;childLayout=stackLayout;horizontal=1;startSize=32;horizontalStack=0;resizeParent=1;resizeParentMax=0;resizeLast=0;collapsible=1;marginBottom=0;labelBackgroundColor=none;fillColor=#FFE6E6;strokeColor=#36393d;fontColor=#000000;rounded=0;swimlaneFillColor=#FFFFFF;" parent="1" vertex="1">
                    <mxGeometry x="712.5" y="628" width="207" height="182" as="geometry"/>
                </mxCell>
                <mxCell id="152" value="setComDev()" style="text;strokeColor=none;fillColor=none;align=left;verticalAlign=middle;spacingLeft=4;spacingRight=4;overflow=hidden;points=[[0,0.5],[1,0.5]];portConstraint=eastwest;rotatable=0;labelBackgroundColor=none;fontColor=#000000;fontStyle=1;rounded=0;" vertex="1" parent="74">
                    <mxGeometry y="32" width="207" height="30" as="geometry"/>
                </mxCell>
                <mxCell id="75" value="updateStateEvent(std::string)" style="text;strokeColor=none;fillColor=none;align=left;verticalAlign=middle;spacingLeft=4;spacingRight=4;overflow=hidden;points=[[0,0.5],[1,0.5]];portConstraint=eastwest;rotatable=0;labelBackgroundColor=none;fontColor=#000000;fontStyle=1;rounded=0;" parent="74" vertex="1">
                    <mxGeometry y="62" width="207" height="30" as="geometry"/>
                </mxCell>
                <mxCell id="121" value="checkCardNumber(int *cardNum)" style="text;strokeColor=none;fillColor=none;align=left;verticalAlign=middle;spacingLeft=4;spacingRight=4;overflow=hidden;points=[[0,0.5],[1,0.5]];portConstraint=eastwest;rotatable=0;labelBackgroundColor=none;fontColor=#000000;fontStyle=1;rounded=0;" parent="74" vertex="1">
                    <mxGeometry y="92" width="207" height="30" as="geometry"/>
                </mxCell>
                <mxCell id="153" value="searchMembersInfo();" style="text;strokeColor=none;fillColor=none;align=left;verticalAlign=middle;spacingLeft=4;spacingRight=4;overflow=hidden;points=[[0,0.5],[1,0.5]];portConstraint=eastwest;rotatable=0;labelBackgroundColor=none;fontColor=#000000;fontStyle=1;rounded=0;" vertex="1" parent="74">
                    <mxGeometry y="122" width="207" height="30" as="geometry"/>
                </mxCell>
                <mxCell id="154" value="updateEvent();" style="text;strokeColor=none;fillColor=none;align=left;verticalAlign=middle;spacingLeft=4;spacingRight=4;overflow=hidden;points=[[0,0.5],[1,0.5]];portConstraint=eastwest;rotatable=0;labelBackgroundColor=none;fontColor=#000000;fontStyle=1;rounded=0;" vertex="1" parent="74">
                    <mxGeometry y="152" width="207" height="30" as="geometry"/>
                </mxCell>
                <mxCell id="114" style="edgeStyle=orthogonalEdgeStyle;html=1;entryX=0.5;entryY=0;entryDx=0;entryDy=0;fontColor=#000000;strokeColor=#000000;" parent="1" source="111" edge="1">
                    <mxGeometry relative="1" as="geometry">
                        <Array as="points">
                            <mxPoint x="590" y="140"/>
                            <mxPoint x="770" y="140"/>
                        </Array>
                        <mxPoint x="770" y="180" as="targetPoint"/>
                    </mxGeometry>
                </mxCell>
                <mxCell id="111" value="&lt;font color=&quot;#000000&quot;&gt;CARD&lt;br&gt;READER&lt;br&gt;&lt;/font&gt;" style="ellipse;whiteSpace=wrap;html=1;aspect=fixed;fillColor=#FFFFFF;strokeColor=#000000;" parent="1" vertex="1">
                    <mxGeometry x="550" y="180" width="80" height="80" as="geometry"/>
                </mxCell>
                <mxCell id="112" value="&lt;font color=&quot;#000000&quot;&gt;CARD&lt;br&gt;REGISTER&lt;br&gt;&lt;/font&gt;" style="ellipse;whiteSpace=wrap;html=1;aspect=fixed;fillColor=#FFFFFF;strokeColor=#000000;" parent="1" vertex="1">
                    <mxGeometry x="727.5" y="183" width="80" height="80" as="geometry"/>
                </mxCell>
                <mxCell id="115" style="edgeStyle=orthogonalEdgeStyle;html=1;fontColor=#000000;strokeColor=#000000;exitX=0.5;exitY=1;exitDx=0;exitDy=0;entryX=0.5;entryY=1;entryDx=0;entryDy=0;" parent="1" target="111" edge="1">
                    <mxGeometry relative="1" as="geometry">
                        <mxPoint x="770" y="260" as="sourcePoint"/>
                        <mxPoint x="530" y="230" as="targetPoint"/>
                        <Array as="points">
                            <mxPoint x="770" y="300"/>
                            <mxPoint x="590" y="300"/>
                        </Array>
                    </mxGeometry>
                </mxCell>
                <mxCell id="116" value="상태처리도" style="text;html=1;strokeColor=none;fillColor=none;align=center;verticalAlign=middle;whiteSpace=wrap;rounded=0;fontColor=#000000;" parent="1" vertex="1">
                    <mxGeometry x="530" y="110" width="70" height="30" as="geometry"/>
                </mxCell>
                <mxCell id="117" value="Button" style="text;html=1;strokeColor=none;fillColor=none;align=center;verticalAlign=middle;whiteSpace=wrap;rounded=0;fontColor=#000000;" parent="1" vertex="1">
                    <mxGeometry x="640" y="150" width="60" height="30" as="geometry"/>
                </mxCell>
                <mxCell id="118" value="Button" style="text;html=1;strokeColor=none;fillColor=none;align=center;verticalAlign=middle;whiteSpace=wrap;rounded=0;fontColor=#000000;" parent="1" vertex="1">
                    <mxGeometry x="640" y="260" width="60" height="30" as="geometry"/>
                </mxCell>
                <mxCell id="159" value="LCD" style="swimlane;fontStyle=1;childLayout=stackLayout;horizontal=1;startSize=20;horizontalStack=0;resizeParent=1;resizeParentMax=0;resizeLast=0;collapsible=1;marginBottom=0;labelBackgroundColor=none;fillColor=#FFE6E6;strokeColor=#36393d;fontColor=#000000;rounded=0;swimlaneFillColor=#FFFFFF;" vertex="1" parent="1">
                    <mxGeometry x="621.5" y="1108" width="217" height="170" as="geometry">
                        <mxRectangle x="440" y="380" width="100" height="20" as="alternateBounds"/>
                    </mxGeometry>
                </mxCell>
                <mxCell id="160" value="writeString(char)" style="text;strokeColor=none;fillColor=none;align=left;verticalAlign=middle;spacingLeft=4;spacingRight=4;overflow=hidden;points=[[0,0.5],[1,0.5]];portConstraint=eastwest;rotatable=0;labelBackgroundColor=none;fontColor=#000000;fontStyle=1;rounded=0;" vertex="1" parent="159">
                    <mxGeometry y="20" width="217" height="30" as="geometry"/>
                </mxCell>
                <mxCell id="161" value="gotoXY(uint8_t, uint8_t)" style="text;strokeColor=none;fillColor=none;align=left;verticalAlign=middle;spacingLeft=4;spacingRight=4;overflow=hidden;points=[[0,0.5],[1,0.5]];portConstraint=eastwest;rotatable=0;labelBackgroundColor=none;fontColor=#000000;fontStyle=1;rounded=0;" vertex="1" parent="159">
                    <mxGeometry y="50" width="217" height="30" as="geometry"/>
                </mxCell>
                <mxCell id="162" value="WriteStringXY(uint8_t,uint8_t, char)" style="text;strokeColor=none;fillColor=none;align=left;verticalAlign=middle;spacingLeft=4;spacingRight=4;overflow=hidden;points=[[0,0.5],[1,0.5]];portConstraint=eastwest;rotatable=0;labelBackgroundColor=none;fontColor=#000000;fontStyle=1;rounded=0;" vertex="1" parent="159">
                    <mxGeometry y="80" width="217" height="30" as="geometry"/>
                </mxCell>
                <mxCell id="164" value="backLightOn()" style="text;strokeColor=none;fillColor=none;align=left;verticalAlign=middle;spacingLeft=4;spacingRight=4;overflow=hidden;points=[[0,0.5],[1,0.5]];portConstraint=eastwest;rotatable=0;labelBackgroundColor=none;fontColor=#000000;fontStyle=1;rounded=0;" vertex="1" parent="159">
                    <mxGeometry y="110" width="217" height="30" as="geometry"/>
                </mxCell>
                <mxCell id="165" value="backLightOff()" style="text;strokeColor=none;fillColor=none;align=left;verticalAlign=middle;spacingLeft=4;spacingRight=4;overflow=hidden;points=[[0,0.5],[1,0.5]];portConstraint=eastwest;rotatable=0;labelBackgroundColor=none;fontColor=#000000;fontStyle=1;rounded=0;" vertex="1" parent="159">
                    <mxGeometry y="140" width="217" height="30" as="geometry"/>
                </mxCell>
                <mxCell id="174" style="edgeStyle=none;rounded=0;html=1;entryX=0.5;entryY=0;entryDx=0;entryDy=0;strokeColor=#000000;" edge="1" parent="1" source="169" target="172">
                    <mxGeometry relative="1" as="geometry"/>
                </mxCell>
                <mxCell id="169" value="ComDev" style="swimlane;fontStyle=1;childLayout=stackLayout;horizontal=1;startSize=20;horizontalStack=0;resizeParent=1;resizeParentMax=0;resizeLast=0;collapsible=1;marginBottom=0;labelBackgroundColor=none;fillColor=#FFE6E6;strokeColor=#36393d;fontColor=#000000;rounded=0;swimlaneFillColor=#FFFFFF;" vertex="1" parent="1">
                    <mxGeometry x="850" y="888" width="147" height="50" as="geometry">
                        <mxRectangle x="440" y="380" width="100" height="20" as="alternateBounds"/>
                    </mxGeometry>
                </mxCell>
                <mxCell id="170" value="sendData(int *cardNum)" style="text;strokeColor=none;fillColor=none;align=left;verticalAlign=middle;spacingLeft=4;spacingRight=4;overflow=hidden;points=[[0,0.5],[1,0.5]];portConstraint=eastwest;rotatable=0;labelBackgroundColor=none;fontColor=#000000;fontStyle=1;rounded=0;" vertex="1" parent="169">
                    <mxGeometry y="20" width="147" height="30" as="geometry"/>
                </mxCell>
                <mxCell id="172" value="TcpServer" style="swimlane;fontStyle=1;childLayout=stackLayout;horizontal=1;startSize=20;horizontalStack=0;resizeParent=1;resizeParentMax=0;resizeLast=0;collapsible=1;marginBottom=0;labelBackgroundColor=none;fillColor=#FFE6E6;strokeColor=#36393d;fontColor=#000000;rounded=0;swimlaneFillColor=#FFFFFF;" vertex="1" parent="1">
                    <mxGeometry x="850" y="969" width="147" height="50" as="geometry">
                        <mxRectangle x="440" y="380" width="100" height="20" as="alternateBounds"/>
                    </mxGeometry>
                </mxCell>
                <mxCell id="173" value="sendData()" style="text;strokeColor=none;fillColor=none;align=left;verticalAlign=middle;spacingLeft=4;spacingRight=4;overflow=hidden;points=[[0,0.5],[1,0.5]];portConstraint=eastwest;rotatable=0;labelBackgroundColor=none;fontColor=#000000;fontStyle=1;rounded=0;" vertex="1" parent="172">
                    <mxGeometry y="20" width="147" height="30" as="geometry"/>
                </mxCell>
                <mxCell id="202" style="edgeStyle=none;rounded=0;html=1;entryX=0.5;entryY=0;entryDx=0;entryDy=0;strokeColor=#000000;" edge="1" parent="1" source="175" target="159">
                    <mxGeometry relative="1" as="geometry"/>
                </mxCell>
                <mxCell id="175" value="View" style="swimlane;fontStyle=1;childLayout=stackLayout;horizontal=1;startSize=20;horizontalStack=0;resizeParent=1;resizeParentMax=0;resizeLast=0;collapsible=1;marginBottom=0;labelBackgroundColor=none;fillColor=#FFE6E6;strokeColor=#36393d;fontColor=#000000;rounded=0;swimlaneFillColor=#FFFFFF;" vertex="1" parent="1">
                    <mxGeometry x="641.5" y="878" width="177" height="200" as="geometry">
                        <mxRectangle x="440" y="380" width="100" height="20" as="alternateBounds"/>
                    </mxGeometry>
                </mxCell>
                <mxCell id="176" value="initDisplay()" style="text;strokeColor=none;fillColor=none;align=left;verticalAlign=middle;spacingLeft=4;spacingRight=4;overflow=hidden;points=[[0,0.5],[1,0.5]];portConstraint=eastwest;rotatable=0;labelBackgroundColor=none;fontColor=#000000;fontStyle=1;rounded=0;" vertex="1" parent="175">
                    <mxGeometry y="20" width="177" height="30" as="geometry"/>
                </mxCell>
                <mxCell id="177" value="printModeDisplay(int managerState)" style="text;strokeColor=none;fillColor=none;align=left;verticalAlign=middle;spacingLeft=4;spacingRight=4;overflow=hidden;points=[[0,0.5],[1,0.5]];portConstraint=eastwest;rotatable=0;labelBackgroundColor=none;fontColor=#000000;fontStyle=1;rounded=0;" vertex="1" parent="175">
                    <mxGeometry y="50" width="177" height="30" as="geometry"/>
                </mxCell>
                <mxCell id="178" value="printStateDisplay(int state)" style="text;strokeColor=none;fillColor=none;align=left;verticalAlign=middle;spacingLeft=4;spacingRight=4;overflow=hidden;points=[[0,0.5],[1,0.5]];portConstraint=eastwest;rotatable=0;labelBackgroundColor=none;fontColor=#000000;fontStyle=1;rounded=0;" vertex="1" parent="175">
                    <mxGeometry y="80" width="177" height="30" as="geometry"/>
                </mxCell>
                <mxCell id="179" value="printCardRegistoredDisplay(std::string)" style="text;strokeColor=none;fillColor=none;align=left;verticalAlign=middle;spacingLeft=4;spacingRight=4;overflow=hidden;points=[[0,0.5],[1,0.5]];portConstraint=eastwest;rotatable=0;labelBackgroundColor=none;fontColor=#000000;fontStyle=1;rounded=0;" vertex="1" parent="175">
                    <mxGeometry y="110" width="177" height="30" as="geometry"/>
                </mxCell>
                <mxCell id="180" value="printInnfoDisplay(std::string)" style="text;strokeColor=none;fillColor=none;align=left;verticalAlign=middle;spacingLeft=4;spacingRight=4;overflow=hidden;points=[[0,0.5],[1,0.5]];portConstraint=eastwest;rotatable=0;labelBackgroundColor=none;fontColor=#000000;fontStyle=1;rounded=0;" vertex="1" parent="175">
                    <mxGeometry y="140" width="177" height="30" as="geometry"/>
                </mxCell>
                <mxCell id="181" value="updateTime(struct tm)" style="text;strokeColor=none;fillColor=none;align=left;verticalAlign=middle;spacingLeft=4;spacingRight=4;overflow=hidden;points=[[0,0.5],[1,0.5]];portConstraint=eastwest;rotatable=0;labelBackgroundColor=none;fontColor=#000000;fontStyle=1;rounded=0;" vertex="1" parent="175">
                    <mxGeometry y="170" width="177" height="30" as="geometry"/>
                </mxCell>
                <mxCell id="183" value="MemebersInfo" style="swimlane;fontStyle=1;childLayout=stackLayout;horizontal=1;startSize=30;horizontalStack=0;resizeParent=1;resizeParentMax=0;resizeLast=0;collapsible=1;marginBottom=0;fillColor=#FFE6E6;strokeColor=#36393d;fontColor=#000000;rounded=0;swimlaneFillColor=#FFFFFF;" vertex="1" parent="1">
                    <mxGeometry x="980" y="598" width="140" height="150" as="geometry"/>
                </mxCell>
                <mxCell id="184" value="id : int" style="text;strokeColor=none;fillColor=none;align=left;verticalAlign=middle;spacingLeft=4;spacingRight=4;overflow=hidden;points=[[0,0.5],[1,0.5]];portConstraint=eastwest;rotatable=0;fontColor=#000000;fontStyle=1;rounded=0;" vertex="1" parent="183">
                    <mxGeometry y="30" width="140" height="30" as="geometry"/>
                </mxCell>
                <mxCell id="185" value="name[20] : char" style="text;strokeColor=none;fillColor=none;align=left;verticalAlign=middle;spacingLeft=4;spacingRight=4;overflow=hidden;points=[[0,0.5],[1,0.5]];portConstraint=eastwest;rotatable=0;fontColor=#000000;fontStyle=1;rounded=0;" vertex="1" parent="183">
                    <mxGeometry y="60" width="140" height="30" as="geometry"/>
                </mxCell>
                <mxCell id="186" value="address[40] : char" style="text;strokeColor=none;fillColor=none;align=left;verticalAlign=middle;spacingLeft=4;spacingRight=4;overflow=hidden;points=[[0,0.5],[1,0.5]];portConstraint=eastwest;rotatable=0;fontColor=#000000;fontStyle=1;rounded=0;" vertex="1" parent="183">
                    <mxGeometry y="90" width="140" height="30" as="geometry"/>
                </mxCell>
                <mxCell id="187" value="cardNum[5] : int" style="text;strokeColor=none;fillColor=none;align=left;verticalAlign=middle;spacingLeft=4;spacingRight=4;overflow=hidden;points=[[0,0.5],[1,0.5]];portConstraint=eastwest;rotatable=0;fontColor=#000000;fontStyle=1;rounded=0;" vertex="1" parent="183">
                    <mxGeometry y="120" width="140" height="30" as="geometry"/>
                </mxCell>
                <mxCell id="200" style="edgeStyle=none;rounded=0;html=1;strokeColor=#000000;exitX=0;exitY=0.5;exitDx=0;exitDy=0;" edge="1" parent="1" source="192" target="183">
                    <mxGeometry relative="1" as="geometry"/>
                </mxCell>
                <mxCell id="189" value="MembersEntity" style="swimlane;fontStyle=1;childLayout=stackLayout;horizontal=1;startSize=20;horizontalStack=0;resizeParent=1;resizeParentMax=0;resizeLast=0;collapsible=1;marginBottom=0;labelBackgroundColor=none;fillColor=#FFE6E6;strokeColor=#36393d;fontColor=#000000;rounded=0;swimlaneFillColor=#FFFFFF;" vertex="1" parent="1">
                    <mxGeometry x="1170.5" y="578" width="199" height="290" as="geometry"/>
                </mxCell>
                <mxCell id="190" value="loadMembersInfo()" style="text;strokeColor=none;fillColor=none;align=left;verticalAlign=middle;spacingLeft=4;spacingRight=4;overflow=hidden;points=[[0,0.5],[1,0.5]];portConstraint=eastwest;rotatable=0;labelBackgroundColor=none;fontColor=#000000;fontStyle=1;rounded=0;" vertex="1" parent="189">
                    <mxGeometry y="20" width="199" height="30" as="geometry"/>
                </mxCell>
                <mxCell id="191" value="addMembersInfo(MembersInfo)" style="text;strokeColor=none;fillColor=none;align=left;verticalAlign=middle;spacingLeft=4;spacingRight=4;overflow=hidden;points=[[0,0.5],[1,0.5]];portConstraint=eastwest;rotatable=0;labelBackgroundColor=none;fontColor=#000000;fontStyle=1;rounded=0;" vertex="1" parent="189">
                    <mxGeometry y="50" width="199" height="30" as="geometry"/>
                </mxCell>
                <mxCell id="192" value="delMembersInfo(int *cardNum)" style="text;strokeColor=none;fillColor=none;align=left;verticalAlign=middle;spacingLeft=4;spacingRight=4;overflow=hidden;points=[[0,0.5],[1,0.5]];portConstraint=eastwest;rotatable=0;labelBackgroundColor=none;fontColor=#000000;fontStyle=1;rounded=0;" vertex="1" parent="189">
                    <mxGeometry y="80" width="199" height="30" as="geometry"/>
                </mxCell>
                <mxCell id="193" value="makeDBMembersInfo()" style="text;strokeColor=none;fillColor=none;align=left;verticalAlign=middle;spacingLeft=4;spacingRight=4;overflow=hidden;points=[[0,0.5],[1,0.5]];portConstraint=eastwest;rotatable=0;labelBackgroundColor=none;fontColor=#000000;fontStyle=1;rounded=0;" vertex="1" parent="189">
                    <mxGeometry y="110" width="199" height="30" as="geometry"/>
                </mxCell>
                <mxCell id="194" value="printMembersInfo(int index)" style="text;strokeColor=none;fillColor=none;align=left;verticalAlign=middle;spacingLeft=4;spacingRight=4;overflow=hidden;points=[[0,0.5],[1,0.5]];portConstraint=eastwest;rotatable=0;labelBackgroundColor=none;fontColor=#000000;fontStyle=1;rounded=0;" vertex="1" parent="189">
                    <mxGeometry y="140" width="199" height="30" as="geometry"/>
                </mxCell>
                <mxCell id="195" value="printMembersInfo(std::string)" style="text;strokeColor=none;fillColor=none;align=left;verticalAlign=middle;spacingLeft=4;spacingRight=4;overflow=hidden;points=[[0,0.5],[1,0.5]];portConstraint=eastwest;rotatable=0;labelBackgroundColor=none;fontColor=#000000;fontStyle=1;rounded=0;" vertex="1" parent="189">
                    <mxGeometry y="170" width="199" height="30" as="geometry"/>
                </mxCell>
                <mxCell id="196" value="printMembersInfo(int *cardNum)" style="text;strokeColor=none;fillColor=none;align=left;verticalAlign=middle;spacingLeft=4;spacingRight=4;overflow=hidden;points=[[0,0.5],[1,0.5]];portConstraint=eastwest;rotatable=0;labelBackgroundColor=none;fontColor=#000000;fontStyle=1;rounded=0;" vertex="1" parent="189">
                    <mxGeometry y="200" width="199" height="30" as="geometry"/>
                </mxCell>
                <mxCell id="197" value="findMembersInfo(std::string)" style="text;strokeColor=none;fillColor=none;align=left;verticalAlign=middle;spacingLeft=4;spacingRight=4;overflow=hidden;points=[[0,0.5],[1,0.5]];portConstraint=eastwest;rotatable=0;labelBackgroundColor=none;fontColor=#000000;fontStyle=1;rounded=0;" vertex="1" parent="189">
                    <mxGeometry y="230" width="199" height="30" as="geometry"/>
                </mxCell>
                <mxCell id="198" value="findMembersInfo(int *cardNum)" style="text;strokeColor=none;fillColor=none;align=left;verticalAlign=middle;spacingLeft=4;spacingRight=4;overflow=hidden;points=[[0,0.5],[1,0.5]];portConstraint=eastwest;rotatable=0;labelBackgroundColor=none;fontColor=#000000;fontStyle=1;rounded=0;" vertex="1" parent="189">
                    <mxGeometry y="260" width="199" height="30" as="geometry"/>
                </mxCell>
                <mxCell id="204" value="DeviceData" style="swimlane;fontStyle=1;childLayout=stackLayout;horizontal=1;startSize=20;horizontalStack=0;resizeParent=1;resizeParentMax=0;resizeLast=0;collapsible=1;marginBottom=0;labelBackgroundColor=none;fillColor=#FFE6E6;strokeColor=#36393d;fontColor=#000000;rounded=0;swimlaneFillColor=#FFFFFF;" vertex="1" parent="1">
                    <mxGeometry x="510" y="598" width="140" height="80" as="geometry">
                        <mxRectangle x="440" y="380" width="100" height="20" as="alternateBounds"/>
                    </mxGeometry>
                </mxCell>
                <mxCell id="205" value="devName : std::string" style="text;strokeColor=none;fillColor=none;align=left;verticalAlign=middle;spacingLeft=4;spacingRight=4;overflow=hidden;points=[[0,0.5],[1,0.5]];portConstraint=eastwest;rotatable=0;labelBackgroundColor=none;fontColor=#000000;fontStyle=1;rounded=0;" vertex="1" parent="204">
                    <mxGeometry y="20" width="140" height="30" as="geometry"/>
                </mxCell>
                <mxCell id="206" value="devDate : std::vector" style="text;strokeColor=none;fillColor=none;align=left;verticalAlign=middle;spacingLeft=4;spacingRight=4;overflow=hidden;points=[[0,0.5],[1,0.5]];portConstraint=eastwest;rotatable=0;labelBackgroundColor=none;fontColor=#000000;fontStyle=1;rounded=0;" vertex="1" parent="204">
                    <mxGeometry y="50" width="140" height="30" as="geometry"/>
                </mxCell>
                <mxCell id="222" style="edgeStyle=none;rounded=0;html=1;entryX=0.5;entryY=0;entryDx=0;entryDy=0;strokeColor=#000000;endArrow=classic;endFill=0;" edge="1" parent="1" target="217">
                    <mxGeometry relative="1" as="geometry">
                        <mxPoint x="378" y="810" as="sourcePoint"/>
                    </mxGeometry>
                </mxCell>
                <mxCell id="225" style="edgeStyle=none;rounded=0;html=1;entryX=0;entryY=0.5;entryDx=0;entryDy=0;endArrow=classic;endFill=1;strokeColor=#000000;exitX=0.629;exitY=-0.005;exitDx=0;exitDy=0;exitPerimeter=0;" edge="1" parent="1" source="209" target="205">
                    <mxGeometry relative="1" as="geometry">
                        <Array as="points">
                            <mxPoint x="402" y="633"/>
                        </Array>
                    </mxGeometry>
                </mxCell>
                <mxCell id="209" value="CardReader" style="swimlane;fontStyle=1;childLayout=stackLayout;horizontal=1;startSize=20;horizontalStack=0;resizeParent=1;resizeParentMax=0;resizeLast=0;collapsible=1;marginBottom=0;labelBackgroundColor=none;fillColor=#FFE6E6;strokeColor=#36393d;fontColor=#000000;rounded=0;swimlaneFillColor=#FFFFFF;" vertex="1" parent="1">
                    <mxGeometry x="279" y="730" width="195" height="80" as="geometry"/>
                </mxCell>
                <mxCell id="210" value="isCard()" style="text;strokeColor=none;fillColor=none;align=left;verticalAlign=middle;spacingLeft=4;spacingRight=4;overflow=hidden;points=[[0,0.5],[1,0.5]];portConstraint=eastwest;rotatable=0;labelBackgroundColor=none;fontColor=#000000;fontStyle=1;rounded=0;" vertex="1" parent="209">
                    <mxGeometry y="20" width="195" height="30" as="geometry"/>
                </mxCell>
                <mxCell id="211" value="getCardNumber() :: DeviceData" style="text;strokeColor=none;fillColor=none;align=left;verticalAlign=middle;spacingLeft=4;spacingRight=4;overflow=hidden;points=[[0,0.5],[1,0.5]];portConstraint=eastwest;rotatable=0;labelBackgroundColor=none;fontColor=#000000;fontStyle=1;rounded=0;" vertex="1" parent="209">
                    <mxGeometry y="50" width="195" height="30" as="geometry"/>
                </mxCell>
                <mxCell id="223" style="edgeStyle=none;rounded=0;html=1;entryX=0.5;entryY=0;entryDx=0;entryDy=0;strokeColor=#000000;endArrow=classic;endFill=0;" edge="1" parent="1" source="212" target="220">
                    <mxGeometry relative="1" as="geometry"/>
                </mxCell>
                <mxCell id="224" style="edgeStyle=none;rounded=0;html=1;entryX=0;entryY=0.5;entryDx=0;entryDy=0;endArrow=classic;endFill=1;strokeColor=#000000;exitX=0.605;exitY=-0.005;exitDx=0;exitDy=0;exitPerimeter=0;" edge="1" parent="1" source="212" target="205">
                    <mxGeometry relative="1" as="geometry">
                        <Array as="points">
                            <mxPoint x="170" y="633"/>
                        </Array>
                    </mxGeometry>
                </mxCell>
                <mxCell id="212" value="ManageButton" style="swimlane;fontStyle=1;childLayout=stackLayout;horizontal=1;startSize=20;horizontalStack=0;resizeParent=1;resizeParentMax=0;resizeLast=0;collapsible=1;marginBottom=0;labelBackgroundColor=none;fillColor=#FFE6E6;strokeColor=#36393d;fontColor=#000000;rounded=0;swimlaneFillColor=#FFFFFF;" vertex="1" parent="1">
                    <mxGeometry x="60" y="730" width="180" height="80" as="geometry"/>
                </mxCell>
                <mxCell id="213" value="checkButton()" style="text;strokeColor=none;fillColor=none;align=left;verticalAlign=middle;spacingLeft=4;spacingRight=4;overflow=hidden;points=[[0,0.5],[1,0.5]];portConstraint=eastwest;rotatable=0;labelBackgroundColor=none;fontColor=#000000;fontStyle=1;rounded=0;" vertex="1" parent="212">
                    <mxGeometry y="20" width="180" height="30" as="geometry"/>
                </mxCell>
                <mxCell id="214" value="getButtonData() : DeviceData" style="text;strokeColor=none;fillColor=none;align=left;verticalAlign=middle;spacingLeft=4;spacingRight=4;overflow=hidden;points=[[0,0.5],[1,0.5]];portConstraint=eastwest;rotatable=0;labelBackgroundColor=none;fontColor=#000000;fontStyle=1;rounded=0;" vertex="1" parent="212">
                    <mxGeometry y="50" width="180" height="30" as="geometry"/>
                </mxCell>
                <mxCell id="217" value="mfrc522" style="swimlane;fontStyle=1;childLayout=stackLayout;horizontal=1;startSize=20;horizontalStack=0;resizeParent=1;resizeParentMax=0;resizeLast=0;collapsible=1;marginBottom=0;labelBackgroundColor=none;fillColor=#FFE6E6;strokeColor=#36393d;fontColor=#000000;rounded=0;swimlaneFillColor=#FFFFFF;" vertex="1" parent="1">
                    <mxGeometry x="307.5" y="845" width="140" height="80" as="geometry"/>
                </mxCell>
                <mxCell id="218" value="request()" style="text;strokeColor=none;fillColor=none;align=left;verticalAlign=middle;spacingLeft=4;spacingRight=4;overflow=hidden;points=[[0,0.5],[1,0.5]];portConstraint=eastwest;rotatable=0;labelBackgroundColor=none;fontColor=#000000;fontStyle=1;rounded=0;" vertex="1" parent="217">
                    <mxGeometry y="20" width="140" height="30" as="geometry"/>
                </mxCell>
                <mxCell id="219" value="get_card_serial()" style="text;strokeColor=none;fillColor=none;align=left;verticalAlign=middle;spacingLeft=4;spacingRight=4;overflow=hidden;points=[[0,0.5],[1,0.5]];portConstraint=eastwest;rotatable=0;labelBackgroundColor=none;fontColor=#000000;fontStyle=1;rounded=0;" vertex="1" parent="217">
                    <mxGeometry y="50" width="140" height="30" as="geometry"/>
                </mxCell>
                <mxCell id="220" value="Button" style="swimlane;fontStyle=1;childLayout=stackLayout;horizontal=1;startSize=20;horizontalStack=0;resizeParent=1;resizeParentMax=0;resizeLast=0;collapsible=1;marginBottom=0;labelBackgroundColor=none;fillColor=#FFE6E6;strokeColor=#36393d;fontColor=#000000;rounded=0;swimlaneFillColor=#FFFFFF;" vertex="1" parent="1">
                    <mxGeometry x="80" y="860" width="140" height="50" as="geometry"/>
                </mxCell>
                <mxCell id="221" value="request()" style="text;strokeColor=none;fillColor=none;align=left;verticalAlign=middle;spacingLeft=4;spacingRight=4;overflow=hidden;points=[[0,0.5],[1,0.5]];portConstraint=eastwest;rotatable=0;labelBackgroundColor=none;fontColor=#000000;fontStyle=1;rounded=0;" vertex="1" parent="220">
                    <mxGeometry y="20" width="140" height="30" as="geometry"/>
                </mxCell>
            </root>
        </mxGraphModel>
    </diagram>
</mxfile>